HIERARCHY
ROOT root
{
  OFFSET 0 95.9893 0
  CHANNELS 6 Xposition Yposition Zposition Zrotation Xrotation Yrotation
  JOINT torso_1
  {
    OFFSET 0 5.22546 -1.18466
    CHANNELS 6 Xposition Yposition Zposition Zrotation Xrotation Yrotation
    JOINT torso_2
    {
      OFFSET 0 5.77894 1.10239
      CHANNELS 6 Xposition Yposition Zposition Zrotation Xrotation Yrotation
      JOINT torso_3
      {
        OFFSET -1.0557e-17 6.16289 0.118334
        CHANNELS 6 Xposition Yposition Zposition Zrotation Xrotation Yrotation
        JOINT torso_4
        {
          OFFSET -1.13649e-17 6.69386 -0.456341
          CHANNELS 6 Xposition Yposition Zposition Zrotation Xrotation Yrotation
          JOINT torso_5
          {
            OFFSET -2.02997e-17 7.82529 -1.54945
            CHANNELS 6 Xposition Yposition Zposition Zrotation Xrotation Yrotation
            JOINT torso_6
            {
              OFFSET -2.60628e-17 9.77186 -0.940923
              CHANNELS 6 Xposition Yposition Zposition Zrotation Xrotation Yrotation
              JOINT torso_7
              {
                OFFSET -2.98794e-17 10.8563 1.62248
                CHANNELS 6 Xposition Yposition Zposition Zrotation Xrotation Yrotation
                JOINT neck_1
                {
                  OFFSET -1.32927e-17 4.92478 0.736013
                  CHANNELS 6 Xposition Yposition Zposition Zrotation Xrotation Yrotation
                  JOINT neck_2
                  {
                    OFFSET -1.86396e-17 4.96043 0.433981
                    CHANNELS 6 Xposition Yposition Zposition Zrotation Xrotation Yrotation
                    JOINT head
                    {
                      OFFSET -2.06766e-17 4.97002 0.787173
                      CHANNELS 6 Xposition Yposition Zposition Zrotation Xrotation Yrotation
                      End Site
                      {
                        OFFSET 0 0.1 0
                      }
                    }
                  }
                }
                JOINT l_shoulder
                {
                  OFFSET 1.26863 -7.82717 7.75148
                  CHANNELS 6 Xposition Yposition Zposition Zrotation Xrotation Yrotation
                  JOINT l_up_arm
                  {
                    OFFSET 13.3291 3.34342 -3.36319
                    CHANNELS 6 Xposition Yposition Zposition Zrotation Xrotation Yrotation
                    JOINT l_low_arm
                    {
                      OFFSET 30.0522 0.0615366 0.141
                      CHANNELS 6 Xposition Yposition Zposition Zrotation Xrotation Yrotation
                      JOINT l_hand
                      {
                        OFFSET 24.9344 0.0510561 0.116988
                        CHANNELS 6 Xposition Yposition Zposition Zrotation Xrotation Yrotation
                        End Site
                        {
                          OFFSET 0.1 0 0
                        }
                      }
                    }
                  }
                }
                JOINT r_shoulder
                {
                  OFFSET -1.26863 -7.82715 7.75138
                  CHANNELS 6 Xposition Yposition Zposition Zrotation Xrotation Yrotation
                  JOINT r_up_arm
                  {
                    OFFSET -13.3291 3.34342 -3.36319
                    CHANNELS 6 Xposition Yposition Zposition Zrotation Xrotation Yrotation
                    JOINT r_low_arm
                    {
                      OFFSET -30.0522 0.0615366 0.141
                      CHANNELS 6 Xposition Yposition Zposition Zrotation Xrotation Yrotation
                      JOINT r_hand
                      {
                        OFFSET -24.9344 0.0510559 0.116988
                        CHANNELS 6 Xposition Yposition Zposition Zrotation Xrotation Yrotation
                        End Site
                        {
                          OFFSET -0.1 0 0
                        }
                      }
                    }
                  }
                }
              }
            }
          }
        }
      }
    }
  }
  JOINT l_up_leg
  {
    OFFSET 9.50369 -4.32711 2.09145
    CHANNELS 6 Xposition Yposition Zposition Zrotation Xrotation Yrotation
    JOINT l_low_leg
    {
      OFFSET -0.876987 -39.8926 -0.674123
      CHANNELS 6 Xposition Yposition Zposition Zrotation Xrotation Yrotation
      JOINT l_foot
      {
        OFFSET -2.39345 -41.5694 -6.22357
        CHANNELS 6 Xposition Yposition Zposition Zrotation Xrotation Yrotation
        JOINT l_toes
        {
          OFFSET 0.801613 -10.1701 12.8571
          CHANNELS 6 Xposition Yposition Zposition Zrotation Xrotation Yrotation
          End Site
          {
            OFFSET 0 0 0.1
          }
        }
      }
    }
  }
  JOINT r_up_leg
  {
    OFFSET -9.50369 -4.32711 2.09145
    CHANNELS 6 Xposition Yposition Zposition Zrotation Xrotation Yrotation
    JOINT r_low_leg
    {
      OFFSET 0.876987 -39.8926 -0.674123
      CHANNELS 6 Xposition Yposition Zposition Zrotation Xrotation Yrotation
      JOINT r_foot
      {
        OFFSET 2.39345 -41.5694 -6.22357
        CHANNELS 6 Xposition Yposition Zposition Zrotation Xrotation Yrotation
        JOINT r_toes
        {
          OFFSET -0.801613 -10.1701 12.8571
          CHANNELS 6 Xposition Yposition Zposition Zrotation Xrotation Yrotation
          End Site
          {
            OFFSET 0 0 0.1
          }
        }
      }
    }
  }
}
MOTION
Frames: 4
Frame Time: 0.02
-5.57722 94.5787 -41.1647 6.1993 -1.08638 36.34 0 5.22546 -1.18466 -0.0123522 6.85636 5.14774 0 5.77894 1.10239 -1.0688 4.93591 5.66158 -1.0557e-17 6.16289 0.118334 -1.35958 3.65928 5.71616 -1.13649e-17 6.69386 -0.456341 -1.78945 1.86043 5.91051 -2.02997e-17 7.82529 -1.54945 -0.873573 0.614129 6.16029 -2.60628e-17 9.77186 -0.940923 0.819516 0.0390676 5.97576 -2.98794e-17 10.8563 1.62248 -0.0263358 0.169594 0.0129456 -1.32927e-17 4.92478 0.736013 -0.871257 6.59928 -37.2276 -1.86396e-17 4.96043 0.433981 3.79191 -2.65123 -19.2591 -2.06766e-17 4.97002 0.787173 -4.98631 -20.0508 -8.33758 1.26863 -7.82717 7.75148 -4.59305 4.77597 -3.35826 13.3291 3.34342 -3.36319 -94.9113 7.78596 18.66 30.0522 0.0615366 0.141 1.51784 -0.0892722 -7.33365 24.9344 0.0510561 0.116988 -1.5132 -1.99593 2.57789 -1.26863 -7.82715 7.75138 3.06926 3.68959 1.53382 -13.3291 3.34342 -3.36319 68.248 59.5043 35.3412 -30.0522 0.0615366 0.141 -5.11184 -1.12539 25.4071 -24.9344 0.0510559 0.116988 -5.56845 -6.09358 -0.952856 9.50369 -4.32711 2.09145 -1.69619 -6.77711 -39.6054 -0.876987 -39.8926 -0.674123 -1.01429 3.78783 -0.0325955 -2.39345 -41.5694 -6.22357 -20.0346 -0.0086995 15.6936 0.801613 -10.1701 12.8571 -3.47873e-16 -8.07563e-16 2.48481e-17 -9.50369 -4.32711 2.09145 -14.6109 11.4449 -4.55162 0.876987 -39.8926 -0.674123 1.40733 5.25301 0.0271884 2.39345 -41.5694 -6.22357 4.61954 -4.48088 -15.9206 -0.801613 -10.1701 12.8571 9.93923e-16 -6.33626e-16 -1.28092e-14 
-5.77444 94.5694 -41.0666 6.25969 -1.08728 36.72 0 5.22546 -1.18466 -0.00951489 6.66333 5.11203 0 5.77894 1.10239 -1.05795 4.84198 5.66518 -1.0557e-17 6.16289 0.118334 -1.34908 3.60126 5.73764 -1.13649e-17 6.69386 -0.456341 -1.78941 1.8553 5.94142 -2.02997e-17 7.82529 -1.54945 -0.885215 0.698247 6.19365 -2.60628e-17 9.77186 -0.940923 0.806754 0.208862 6.00333 -2.98794e-17 10.8563 1.62248 -0.0260879 0.168528 0.0132156 -1.32927e-17 4.92478 0.736013 -0.850596 6.62365 -36.5939 -1.86396e-17 4.96043 0.433981 3.69187 -2.61098 -18.9535 -2.06766e-17 4.97002 0.787173 -5.31666 -19.5672 -9.4003 1.26863 -7.82717 7.75148 -4.36627 4.57204 -3.06639 13.3291 3.34342 -3.36319 -98.1389 11.7612 19.1065 30.0522 0.0615366 0.141 1.77452 -0.123806 -8.58172 24.9344 0.0510561 0.116988 -2.50984 -4.61922 1.66029 -1.26863 -7.82715 7.75138 2.35139 3.43781 1.14627 -13.3291 3.34342 -3.36319 65.113 64.2654 38.7643 -30.0522 0.0615366 0.141 -5.40572 -1.26802 26.9755 -24.9344 0.0510559 0.116988 -5.76991 -7.40778 -1.5337 9.50369 -4.32711 2.09145 -1.52972 -6.52811 -39.5863 -0.876987 -39.8926 -0.674123 -0.879661 3.28529 -0.0321295 -2.39345 -41.5694 -6.22357 -20.0678 0.104542 15.7562 0.801613 -10.1701 12.8571 -3.47873e-16 -8.07563e-16 2.48481e-17 -9.50369 -4.32711 2.09145 -14.5084 11.6195 -4.71787 0.876987 -39.8926 -0.674123 1.40562 5.24665 0.0272337 2.39345 -41.5694 -6.22357 4.75924 -4.61596 -15.8955 -0.801613 -10.1701 12.8571 -5.96354e-16 -5.59082e-16 -1.27471e-14 
-5.9651 94.5778 -40.9694 6.3635 -1.09293 36.9962 0 5.22546 -1.18466 0.0232511 6.47662 5.05045 0 5.77894 1.10239 -1.02454 4.7516 5.63554 -1.0557e-17 6.16289 0.118334 -1.32403 3.5513 5.72765 -1.13649e-17 6.69386 -0.456341 -1.78334 1.86186 5.94109 -2.02997e-17 7.82529 -1.54945 -0.907716 0.783218 6.19538 -2.60628e-17 9.77186 -0.940923 0.766904 0.372536 6.01007 -2.98794e-17 10.8563 1.62248 -0.0262341 0.168264 0.0140797 -1.32927e-17 4.92478 0.736013 -0.921157 6.57523 -35.7188 -1.86396e-17 4.96043 0.433981 3.40999 -2.68604 -18.5016 -2.06766e-17 4.97002 0.787173 -5.63812 -18.8081 -10.7055 1.26863 -7.82717 7.75148 -4.11033 4.2712 -2.77719 13.3291 3.34342 -3.36319 -100.862 14.7635 19.1915 30.0522 0.0615366 0.141 2.117 -0.178797 -10.253 24.9344 0.0510561 0.116988 -2.64268 -3.61555 1.30511 -1.26863 -7.82715 7.75138 1.58339 3.21184 0.768042 -13.3291 3.34342 -3.36319 60.6528 68.1985 43.4215 -30.0522 0.0615366 0.141 -5.69024 -1.41577 28.5141 -24.9344 0.0510559 0.116988 -5.76066 -9.35126 -1.79759 9.50369 -4.32711 2.09145 -1.3711 -6.17685 -39.63 -0.876987 -39.8926 -0.674123 -0.710154 2.65225 -0.0298604 -2.39345 -41.5694 -6.22357 -19.9799 0.330922 15.8743 0.801613 -10.1701 12.8571 4.96962e-17 -7.95139e-16 1.2424e-17 -9.50369 -4.32711 2.09145 -14.454 11.8138 -4.72259 0.876987 -39.8926 -0.674123 1.38904 5.18488 0.0276638 2.39345 -41.5694 -6.22357 4.95209 -4.70535 -15.8722 -0.801613 -10.1701 12.8571 -1.39149e-15 -5.34234e-16 -1.27098e-14 
-6.15003 94.6029 -40.8918 6.24023 -1.18206 37.1683 0 5.22546 -1.18466 0.129236 6.28069 4.95087 0 5.77894 1.10239 -0.922471 4.64391 5.56126 -1.0557e-17 6.16289 0.118334 -1.24497 3.48708 5.67406 -1.13649e-17 6.69386 -0.456341 -1.73929 1.84738 5.8975 -2.02997e-17 7.82529 -1.54945 -0.922647 0.843135 6.14797 -2.60628e-17 9.77186 -0.940923 0.693109 0.527215 5.97575 -2.98794e-17 10.8563 1.62248 -0.0276701 0.169382 0.0154153 -1.32927e-17 4.92478 0.736013 -1.05263 6.47689 -34.8063 -1.86396e-17 4.96043 0.433981 2.9369 -2.85704 -18.0071 -2.06766e-17 4.97002 0.787173 -5.77101 -17.8478 -11.8257 1.26863 -7.82717 7.75148 -3.88993 3.9385 -2.50765 13.3291 3.34342 -3.36319 -102.722 16.0713 18.8452 30.0522 0.0615366 0.141 2.49365 -0.251202 -12.1005 24.9344 0.0510561 0.116988 -1.60182 0.466286 2.09968 -1.26863 -7.82715 7.75138 0.903526 3.06081 0.48493 -13.3291 3.34342 -3.36319 54.8762 71.1797 49.2883 -30.0522 0.0615366 0.141 -5.9369 -1.55184 29.8655 -24.9344 0.0510559 0.116988 -5.55295 -11.2109 -1.65308 9.50369 -4.32711 2.09145 -0.968275 -5.86821 -39.7533 -0.876987 -39.8926 -0.674123 -0.532402 1.98823 -0.0254676 -2.39345 -41.5694 -6.22357 -19.7655 0.468258 15.9687 0.801613 -10.1701 12.8571 4.96962e-17 -7.95139e-16 1.2424e-17 -9.50369 -4.32711 2.09145 -14.1873 11.8938 -4.66153 0.876987 -39.8926 -0.674123 1.36452 5.0936 0.0282665 2.39345 -41.5694 -6.22357 5.23829 -4.65078 -15.8667 -0.801613 -10.1701 12.8571 1.98785e-16 -5.96354e-16 -1.27719e-14 
